<svg xmlns="http://www.w3.org/2000/svg" width="237.3699951171875" height="58.93000030517578" style=""><rect id="backgroundrect" width="100%" height="100%" x="0" y="0" fill="none" stroke="none"/><defs><style>.cls-1{fill:#c60c30;}</style></defs><title>L_Intact_ins_Horiz_Specialty_Solutions_rgb</title><g class="currentLayer" style=""><title>Layer 1</title><g id="Calque_2" data-name="Calque 2" class="selected" opacity="1" fill="#ffffff" fill-opacity="1"><g id="Calque_1-2" data-name="Calque 1" opacity="1" fill="#ffffff" fill-opacity="1"><path d="M162.27,22.68a4.83,4.83,0,0,1-3.43,1,6.59,6.59,0,0,1-4.46-1.82l1.38-1.72a5,5,0,0,0,3.2,1.42c1,0,1.71-.26,1.71-1s-1.12-1-1.72-1.21-1.14-.34-1.71-.57a3.08,3.08,0,0,1-2.31-2.9c0-2.06,1.73-3.36,4.29-3.36A6.27,6.27,0,0,1,163.31,14l-1.07,1.76a5.13,5.13,0,0,0-3-1.14c-.91,0-1.67.23-1.67,1s.87.94,1.67,1.19,1.72.55,2,.69a3,3,0,0,1,2.08,2.74A3.2,3.2,0,0,1,162.27,22.68Z" id="svg_1" opacity="1" fill="#ffffff" fill-opacity="1"/><path d="M171,23.7A3.64,3.64,0,0,1,167.73,22v5.3H165V12.76h2.6l.16,1.57a4,4,0,0,1,3.39-1.78c2.81,0,4.59,2.3,4.59,5.55S173.75,23.7,171,23.7Zm-.7-9c-1.64,0-2.62,1.56-2.62,3.41s.92,3.43,2.56,3.43,2.65-1.56,2.65-3.41S171.93,14.67,170.26,14.67Z" id="svg_2" opacity="1" fill="#ffffff" fill-opacity="1"/><path d="M179.5,18.78a2.7,2.7,0,0,0,2.93,2.81,5.41,5.41,0,0,0,3.2-1.1l1,1.69a6.31,6.31,0,0,1-4.52,1.51c-3.11,0-5.38-2-5.38-5.57S179,12.54,182,12.54s4.83,2.21,4.83,5.36v.87Zm2.42-4.35A2.51,2.51,0,0,0,179.45,17h4.76A2.23,2.23,0,0,0,181.92,14.43Z" id="svg_3" opacity="1" fill="#ffffff" fill-opacity="1"/><path d="M197.47,22a5.29,5.29,0,0,1-4.29,1.72c-2.86,0-5.29-1.91-5.29-5.57a5.28,5.28,0,0,1,5.39-5.58,5.05,5.05,0,0,1,4.14,1.75L196.14,16a3.72,3.72,0,0,0-2.56-1.19c-1.53,0-2.93,1-2.92,3.25s1.35,3.27,3,3.27a3.88,3.88,0,0,0,2.65-1.2Z" id="svg_4" opacity="1" fill="#ffffff" fill-opacity="1"/><path d="M200.2,11.15a1.58,1.58,0,0,1-1.67-1.58,1.65,1.65,0,1,1,1.67,1.58Zm-1.4,12.3V12.73h2.79V23.44Z" id="svg_5" opacity="1" fill="#ffffff" fill-opacity="1"/><path d="M210,23.44a4.56,4.56,0,0,1-.23-1.24,4.07,4.07,0,0,1-3.24,1.47c-1.7,0-3.53-.89-3.53-3.29s2.19-3,3.11-3.25a16.65,16.65,0,0,1,3.59-.37v-.5c0-1.3-1-1.74-2.22-1.74a6.33,6.33,0,0,0-3.25,1l-.75-1.92a9.2,9.2,0,0,1,4.22-1.06,5.39,5.39,0,0,1,3.5,1,3.7,3.7,0,0,1,1.26,3.18V21a4.76,4.76,0,0,0,.5,2.4Zm-.3-5a15.45,15.45,0,0,0-2,.16c-.69.11-1.88.41-1.88,1.6a1.47,1.47,0,0,0,1.67,1.55,2.59,2.59,0,0,0,2.22-1.35Z" id="svg_6" opacity="1" fill="#ffffff" fill-opacity="1"/><path d="M214.32,23.43l0-15h2.79l0,15Z" id="svg_7" opacity="1" fill="#ffffff" fill-opacity="1"/><path d="M225.7,23.31a9.13,9.13,0,0,1-2.33.34,3.27,3.27,0,0,1-2.42-.8,3.59,3.59,0,0,1-.83-2.74V14.74h-1.51v-2h1.5l.18-2.79h2.59V12.7h2.81v2h-2.81v4.84a2.8,2.8,0,0,0,.27,1.42,1.22,1.22,0,0,0,1,.48,5.35,5.35,0,0,0,1.26-.16Z" id="svg_8" opacity="1" fill="#ffffff" fill-opacity="1"/><path d="M232.86,24.44c-.87,2.22-1.71,2.95-3.29,2.95a5.6,5.6,0,0,1-2.52-.52l.6-2.06a3.23,3.23,0,0,0,1.21.32c.57,0,.84-.18,1.14-1l.36-1L226.29,12.7h3l2.59,8,2.58-8h2.92Z" id="svg_9" opacity="1" fill="#ffffff" fill-opacity="1"/><path d="M162.29,45.54a4.79,4.79,0,0,1-3.42,1,6.66,6.66,0,0,1-4.46-1.82L155.78,43a5.12,5.12,0,0,0,3.2,1.42c1,0,1.71-.26,1.71-1s-1.12-1-1.71-1.21-1.15-.34-1.72-.57a3.09,3.09,0,0,1-2.31-2.9c0-2.06,1.73-3.36,4.29-3.37a6.35,6.35,0,0,1,4.1,1.44l-1.08,1.76a5.07,5.07,0,0,0-2.95-1.14c-.91,0-1.66.23-1.66,1s.87.94,1.67,1.19,1.71.55,2,.68A3,3,0,0,1,163.43,43,3.18,3.18,0,0,1,162.29,45.54Z" id="svg_10" opacity="1" fill="#ffffff" fill-opacity="1"/><path d="M169.65,46.56c-3.24,0-5.44-2.12-5.44-5.57s2.19-5.58,5.43-5.58,5.45,2.12,5.45,5.57S172.9,46.56,169.65,46.56Zm0-9.05c-1.72,0-2.59,1.49-2.58,3.48s.87,3.47,2.58,3.47S172.23,43,172.23,41,171.36,37.51,169.65,37.51Z" id="svg_11" opacity="1" fill="#ffffff" fill-opacity="1"/><path d="M176.4,46.33l0-15h2.79l0,15Z" id="svg_12" opacity="1" fill="#ffffff" fill-opacity="1"/><path d="M188.08,46.31l-.16-1.8a4,4,0,0,1-3.34,2c-2.35,0-3.59-1.39-3.59-4.07V35.6h2.79v6.31c0,1.44.48,2.28,1.83,2.28a2.53,2.53,0,0,0,2.28-2.26V35.59h2.79V46.31Z" id="svg_13" opacity="1" fill="#ffffff" fill-opacity="1"/><path d="M198.94,46.19a9.65,9.65,0,0,1-2.34.35,3.31,3.31,0,0,1-2.42-.8,3.65,3.65,0,0,1-.83-2.75V37.62h-1.51v-2h1.51l.18-2.79h2.58v2.79h2.82v2h-2.81v4.85a2.64,2.64,0,0,0,.28,1.41,1.17,1.17,0,0,0,1,.48,5.35,5.35,0,0,0,1.26-.16Z" id="svg_14" opacity="1" fill="#ffffff" fill-opacity="1"/><path d="M201.76,34a1.57,1.57,0,0,1-1.67-1.57A1.65,1.65,0,1,1,201.76,34Zm-1.41,12.3V35.58h2.79V46.3Z" id="svg_15" opacity="1" fill="#ffffff" fill-opacity="1"/><path d="M210,46.52c-3.24,0-5.44-2.12-5.44-5.57s2.19-5.58,5.43-5.58,5.44,2.12,5.45,5.57S213.2,46.52,210,46.52Zm0-9.05c-1.71,0-2.58,1.49-2.58,3.48s.88,3.47,2.59,3.47,2.58-1.51,2.58-3.48S211.66,37.47,209.94,37.47Z" id="svg_16" opacity="1" fill="#ffffff" fill-opacity="1"/><path d="M223.85,46.28V40.06c0-1.41-.41-2.37-1.85-2.37a2.71,2.71,0,0,0-2.4,2.31v6.28h-2.79V35.57h2.6l.19,1.81a4.1,4.1,0,0,1,3.45-2c2.4,0,3.57,1.44,3.57,4.07v6.86Z" id="svg_17" opacity="1" fill="#ffffff" fill-opacity="1"/><path d="M235.51,45.47a4.85,4.85,0,0,1-3.43,1,6.68,6.68,0,0,1-4.46-1.82L229,43a5,5,0,0,0,3.2,1.41c1,0,1.71-.25,1.71-1s-1.12-1-1.71-1.21-1.14-.34-1.72-.57a3.09,3.09,0,0,1-2.31-2.9c0-2.06,1.74-3.36,4.3-3.37a6.31,6.31,0,0,1,4.09,1.44l-1.07,1.76a5.12,5.12,0,0,0-2.95-1.14c-.92,0-1.67.23-1.67,1s.87.94,1.67,1.19,1.71.55,2,.68A3,3,0,0,1,236.65,43,3.24,3.24,0,0,1,235.51,45.47Z" id="svg_18" opacity="1" fill="#ffffff" fill-opacity="1"/><polygon class="cls-1" points="20.08 58.87 0 58.87 0 0 20.08 0 20.08 6.18 6.18 6.18 6.18 52.69 20.08 52.69 20.08 58.87 20.08 58.87" id="svg_19" opacity="1" fill="#ffffff" fill-opacity="1"/><polygon class="cls-1" points="135.28 58.87 115.21 58.87 115.21 52.69 129.11 52.69 129.11 6.18 115.21 6.18 115.21 0 135.28 0 135.28 58.87 135.28 58.87" id="svg_20" opacity="1" fill="#ffffff" fill-opacity="1"/><path d="M50,29c0-3.59-1-4.72-1.69-5.49A7.51,7.51,0,0,0,43,21.37a8.4,8.4,0,0,0-6.93,3.69V22H27.86v1.08H31.2v19H25.66V22H17.34v1.08h3.49v19H17.29v1.07H39.52V42.06H36.08v-9c.05-3.91.1-7,2.51-9a5.46,5.46,0,0,1,3.29-1.23,2.94,2.94,0,0,1,3,2.36,17.3,17.3,0,0,1,.21,3V42.06H41.88v1.07h11.5V42.06H50Z" id="svg_21" opacity="1" fill="#ffffff" fill-opacity="1"/><path d="M83.92,42.26c-1.18,0-1.18-1.23-1.18-3V28.55c0-1.95,0-3.64-1.43-5.13a9.38,9.38,0,0,0-6.17-2.05c-5.18,0-8.52,2.93-8.52,5.44a2.31,2.31,0,0,0,4.62.21c0-1.19-1.07-1.85-1.07-2.47s1.89-2.15,4.2-2.15c3.39,0,3.49,2.41,3.6,3.9v5.13a26.77,26.77,0,0,0-7,.87c-3.44,1.08-5.8,3.29-5.8,6.42a4.2,4.2,0,0,0,.06.72,2.9,2.9,0,0,1-3,2.67c-2.57,0-2.52-2.16-2.52-3.75V23.06h5.49V22H59.69V13.46h-.77a10.74,10.74,0,0,1-2.62,5,12.7,12.7,0,0,1-4.72,3.85v.72h3.34V36c0,2.62,0,3.75.41,4.72.77,2.06,2.82,3,5.34,3,3,0,4.43-1.35,5.1-2.64A5.72,5.72,0,0,0,71,43.75a7.44,7.44,0,0,0,6.88-4.26,4.46,4.46,0,0,0,1.44,3.29,4.86,4.86,0,0,0,3,1,5.17,5.17,0,0,0,3.85-1.69l-.62-.72C85.16,41.65,84.59,42.26,83.92,42.26ZM78,34.2c-.11,2.62-.21,4.42-1.85,6a4.3,4.3,0,0,1-2.87,1.18C71.6,41.39,70,40.31,70,37.8c0-4.21,3.95-5.4,8-5.44Z" id="svg_22" opacity="1" fill="#ffffff" fill-opacity="1"/><path d="M96.5,42.62a4.5,4.5,0,0,1-4.62-3.18,16.27,16.27,0,0,1-.52-5.13c0-2.32.06-7,.88-9a4.56,4.56,0,0,1,4.62-2.87c2.77,0,4.06,1.28,4.06,1.74,0,.2-.11.31-.26.51a3.43,3.43,0,0,0-1,2.42,2.56,2.56,0,0,0,2.42,2.72,2.7,2.7,0,0,0,2.61-2.88c0-2.57-2.92-5.54-7.7-5.54A11.16,11.16,0,0,0,85.77,32.76a10.69,10.69,0,0,0,10.57,11c5.55,0,8.27-3.85,9-7.49h-1.28A7.82,7.82,0,0,1,96.5,42.62Z" id="svg_23" opacity="1" fill="#ffffff" fill-opacity="1"/><path d="M118.52,39.18a3,3,0,0,1-3.08,2.93c-2.57,0-2.51-2.16-2.51-3.75V23.06h5.49V22h-5.49V13.46h-.77a11,11,0,0,1-2.62,5,12.73,12.73,0,0,1-4.73,3.85v.72h3.34V36c0,2.62,0,3.75.41,4.72.77,2.06,2.83,3,5.34,3,4.78,0,5.5-3.33,5.75-4.57Z" id="svg_24" opacity="1" fill="#ffffff" fill-opacity="1"/><path d="M22.85,17.53A3.5,3.5,0,1,0,19.34,14,3.5,3.5,0,0,0,22.85,17.53Z" id="svg_25" opacity="1" fill="#ffffff" fill-opacity="1"/><path class="cls-1" d="M33.56,58.84V52.66H35.1v6.18Z" id="svg_26" opacity="1" fill="#ffffff" fill-opacity="1"/><path class="cls-1" d="M42.55,58.84l-2.37-4v4H38.72V52.66h1.61l2.26,3.77V52.66H44v6.18Z" id="svg_27" opacity="1" fill="#ffffff" fill-opacity="1"/><path class="cls-1" d="M51.39,54.41a2.79,2.79,0,0,0-1.62-.64c-.56,0-.84.16-.84.5s.38.48.56.55.94.32,1.13.38a2.91,2.91,0,0,1,.79.45A1.57,1.57,0,0,1,52,56.93a1.77,1.77,0,0,1-.69,1.45,2.6,2.6,0,0,1-1.79.55,3.65,3.65,0,0,1-2.39-.87l.7-1.12a3,3,0,0,0,1.71.71c.62,0,.92-.2.92-.55s-.4-.49-.62-.57l-1-.35a3.22,3.22,0,0,1-.85-.45,1.58,1.58,0,0,1-.58-1.31A1.74,1.74,0,0,1,48.15,53a2.65,2.65,0,0,1,1.63-.44,3.55,3.55,0,0,1,2.21.79Z" id="svg_28" opacity="1" fill="#ffffff" fill-opacity="1"/><path class="cls-1" d="M58.8,52.66h1.54v3.72a2.52,2.52,0,0,1-.59,1.88,3.31,3.31,0,0,1-4,0,2.52,2.52,0,0,1-.59-1.88V52.66H56.7v3.79a1.11,1.11,0,0,0,.24.84,1.14,1.14,0,0,0,.81.29,1.16,1.16,0,0,0,.81-.29,1.07,1.07,0,0,0,.24-.84Z" id="svg_29" opacity="1" fill="#ffffff" fill-opacity="1"/><path class="cls-1" d="M67.29,58.84,66,56.57h-.62v2.27H63.85V52.66h2.44a2.79,2.79,0,0,1,1.65.41,1.76,1.76,0,0,1,.73,1.48,1.8,1.8,0,0,1-1.17,1.76L69,58.84ZM66.83,54a1.08,1.08,0,0,0-.65-.16h-.79v1.6h.79a1.16,1.16,0,0,0,.65-.16.82.82,0,0,0,.29-.65A.81.81,0,0,0,66.83,54Z" id="svg_30" opacity="1" fill="#ffffff" fill-opacity="1"/><path class="cls-1" d="M75.76,58.84l-.36-1.17H73.22l-.36,1.17H71.34l2.1-6.18H75.3l2.1,6.18Zm-1.45-4.73-.74,2.36h1.48Z" id="svg_31" opacity="1" fill="#ffffff" fill-opacity="1"/><path class="cls-1" d="M84.13,58.84l-2.37-4v4H80.31V52.66h1.6l2.26,3.77V52.66h1.45v6.18Z" id="svg_32" opacity="1" fill="#ffffff" fill-opacity="1"/><path class="cls-1" d="M94.29,57.88a2.77,2.77,0,0,1-2.35,1,2.93,2.93,0,0,1-3-3.19A3,3,0,0,1,92,52.56a2.77,2.77,0,0,1,2.3,1l-.76,1a1.81,1.81,0,0,0-1.44-.74,1.85,1.85,0,0,0,0,3.66,1.88,1.88,0,0,0,1.47-.74Z" id="svg_33" opacity="1" fill="#ffffff" fill-opacity="1"/><path class="cls-1" d="M97.47,58.84V52.66h4.16v1.19H99V55h2.44v1.22H99V57.6h2.72v1.24Z" id="svg_34" opacity="1" fill="#ffffff" fill-opacity="1"/></g></g></g></svg>