<svg xmlns="http://www.w3.org/2000/svg" xmlns:xlink="http://www.w3.org/1999/xlink" width="211" height="42" viewBox="0 0 211 42"><defs><path id="whxea" d="M55 95c0-11.482 11.814-20.79 26.386-20.79 14.573 0 26.387 9.308 26.387 20.79s-11.814 20.79-26.387 20.79C66.814 115.79 55 106.482 55 95z"/><path id="whxeb" d="M89.51 96.176c.214 0 .405.06.573.168a1.078 1.078 0 0 1-.191-.619c0-.091.015-.183.038-.267a1.363 1.363 0 0 1-.428.076c-.122 0-.236-.022-.35-.045a1.098 1.098 0 0 1-.085.794.865.865 0 0 1 .443-.107z"/><path id="whxec" d="M72.69 91.694c.092 0 .183.015.267.038a1.448 1.448 0 0 1-.084-.48c0-.062.008-.115.016-.176-.061.007-.122.007-.191.007-.138 0-.267-.023-.397-.053.023.091.038.175.038.275 0 .183-.053.359-.13.511.145-.076.306-.122.481-.122z"/><path id="whxed" d="M92.518 93.038c.153 0 .29.03.428.084a1.142 1.142 0 0 1-.092-.458c0-.054.008-.1.015-.153-.114.03-.236.046-.358.046-.039 0-.077 0-.123-.008 0 .046.008.092.008.138 0 .122-.015.244-.053.366.06-.008.114-.015.175-.015z"/><path id="whxee" d="M72.576 88.35c.038-.008.076-.008.114-.008.023 0 .054.008.077.008-.008-.053-.008-.115-.008-.168 0-.038 0-.069.008-.115-.023.008-.046.008-.077.008-.038 0-.084-.008-.122-.008.008.062.015.13.015.191 0 .03-.007.061-.007.092z"/><path id="whxef" d="M93.984 88.274h.061c.069 0 .13.007.191.015-.008-.061-.015-.122-.015-.199v-.076c-.069.008-.145.023-.214.023-.008 0-.023 0-.03-.008.007.038.007.084.007.13a.287.287 0 0 1 0 .115z"/><path id="whxeg" d="M66.865 79.463c-.03.015-.069.03-.107.053l.13.023-.023-.076z"/><path id="whxeh" d="M92.679 89.663c-.008 0-.031.008-.046.008 0 .03-.008.053-.008.091h.054v-.099z"/><path id="whxei" d="M91.007 94.61c.175 0 .343.039.496.115a1.127 1.127 0 0 1-.138-.527c0-.06.008-.13.023-.183-.114.03-.236.046-.35.046-.077 0-.161-.015-.238-.023.016.061.016.122.016.183 0 .145-.023.29-.077.42.084-.023.176-.03.268-.03z"/><path id="whxej" d="M69.674 82.402c.046 0 .092.016.145.016a1.23 1.23 0 0 1-.03-.298c0-.054.008-.107.008-.16-.062.007-.13.015-.191.015-.092 0-.176-.008-.26-.023.008.06.023.13.023.198 0 .107-.023.214-.046.313.107-.038.222-.06.351-.06z"/><path id="whxek" d="M68.14 83.364c-.145 0-.283-.03-.413-.076.054.13.084.267.084.42 0 .13-.03.252-.068.366.122-.045.26-.068.397-.068.114 0 .214.023.32.045a1.106 1.106 0 0 1 0-.725c-.106.015-.213.038-.32.038z"/><path id="whxel" d="M69.598 79.303c.038 0 .084 0 .13.007-.008-.06-.015-.114-.015-.175 0-.046.007-.1.007-.138-.046 0-.084.008-.122.008-.084 0-.168-.008-.252-.023a.94.94 0 0 1 .015.153c0 .068-.007.13-.015.198a.949.949 0 0 1 .252-.03z"/><path id="whxem" d="M68.14 80.929a.94.94 0 0 1 .152.015c-.022-.1-.03-.198-.03-.305 0-.092.008-.176.023-.252-.061.007-.13.023-.191.023a1.31 1.31 0 0 1-.397-.07c.03.108.053.207.053.33 0 .121-.023.236-.06.35.137-.06.29-.091.45-.091z"/><path id="whxen" d="M70.904 86.922c.099-.023.198-.038.297-.038.039 0 .07 0 .1.008a1.876 1.876 0 0 1-.016-.214c0-.054.008-.1.008-.153-.038 0-.076.008-.115.008a1.23 1.23 0 0 1-.282-.03c.015.076.023.152.023.228a.553.553 0 0 1-.015.191z"/><path id="whxeo" d="M69.674 85.472c.077 0 .138.007.214.022a1.338 1.338 0 0 1-.015-.557c-.069.008-.13.023-.199.023-.137 0-.267-.03-.389-.061.023.092.046.19.046.298a1.3 1.3 0 0 1-.061.35c.13-.053.26-.075.404-.075z"/><path id="whxep" d="M71.209 90.175c.069 0 .137.007.199.023a1.283 1.283 0 0 1-.092-.481v-.092c-.038.008-.076.008-.115.008-.16 0-.32-.03-.465-.077a1.095 1.095 0 0 1-.046.748c.168-.083.336-.13.519-.13z"/><path id="whxeq" d="M69.629 88.694c.099 0 .198.015.29.038a1.283 1.283 0 0 1-.092-.481c0-.107.008-.206.03-.298-.06.008-.13.023-.19.023-.16 0-.32-.038-.458-.092.038.115.06.23.06.351 0 .214-.068.42-.175.596.168-.084.344-.137.535-.137z"/><path id="whxer" d="M98.267 83.899c.1-.03.214-.046.329-.046.107 0 .221.023.32.046a1.015 1.015 0 0 1-.06-.344c0-.145.03-.282.076-.404a1.165 1.165 0 0 1-.375.06c-.106 0-.213-.015-.305-.038.038.123.061.268.061.405 0 .115-.023.214-.046.32z"/><path id="whxes" d="M94.045 91.473c.145 0 .283.03.413.076a1.234 1.234 0 0 1-.077-.412.77.77 0 0 1 .023-.191c-.107.03-.229.046-.351.046-.054 0-.092 0-.145-.008.007.053.007.107.007.16 0 .115-.015.23-.045.336.053.008.114-.007.175-.007z"/><path id="whxet" d="M97.046 88.48c.236 0 .45.076.626.19a1.05 1.05 0 0 1-.168-.572c0-.115.023-.237.061-.336-.16.069-.336.115-.52.115a.966.966 0 0 1-.213-.023 1.354 1.354 0 0 1-.046.664.926.926 0 0 1 .26-.038z"/><path id="whxeu" d="M95.534 86.777c.092 0 .183.008.267.023a.832.832 0 0 1-.023-.198c0-.062.008-.115.016-.176-.084.023-.176.03-.268.03-.03 0-.053 0-.084-.007 0 .046.008.091.008.137 0 .061-.008.122-.015.184.038.007.069.007.099.007z"/><path id="whxev" d="M95.534 89.991c.199 0 .382.054.534.138a1.127 1.127 0 0 1-.137-.527c0-.092.015-.183.038-.267a1.371 1.371 0 0 1-.435.076c-.046 0-.1 0-.145-.007.015.084.023.16.023.244 0 .13-.023.252-.054.366a.693.693 0 0 1 .176-.023z"/><path id="whxew" d="M97.046 85.342c.137 0 .267.023.397.068a1.3 1.3 0 0 1-.061-.35c0-.085.007-.161.023-.245-.13.046-.268.069-.405.069-.03 0-.069 0-.1-.008.008.061.016.13.016.19 0 .1-.008.192-.03.283.053 0 .106-.007.16-.007z"/><path id="whxex" d="M97.39 82.318a1.02 1.02 0 0 1-.046-.305c-.092.015-.184.03-.275.03h-.046c0 .07-.015.146-.023.214h.008c.13.008.252.023.381.061z"/><path id="whxey" d="M100.031 82.387c-.092-.084-.183-.16-.275-.244-.015.099-.038.198-.069.297a.94.94 0 0 1 .336-.053z"/><path id="whxez" d="M83.578 82.738c-4.032-.626-7.712 1.45-8.2 4.635-.016.114-.03.229-.038.343 1.107-2.504 4.336-4 7.856-3.458 3.894.603 6.696 3.489 6.451 6.55.16-.366.283-.763.344-1.175.489-3.184-2.382-6.269-6.413-6.895z"/><path id="whxeA" d="M84.677 78.63c-2.901-.442-5.543 1.039-5.894 3.33-.015.083-.023.167-.03.244.793-1.794 3.114-2.879 5.642-2.49 2.802.436 4.817 2.513 4.642 4.712.114-.268.206-.55.252-.84.35-2.283-1.71-4.505-4.612-4.955z"/><path id="whxeB" d="M82.837 85.7c-3.833-.595-7.352 1.36-8.116 4.269 1.046-2.573 4.337-4.139 7.902-3.581 4.032.626 6.902 3.71 6.414 6.894-.03.16-.061.32-.1.474.13-.329.237-.68.29-1.046.49-3.177-2.359-6.383-6.39-7.01z"/><path id="whxeC" d="M72.767 96.695a.87.87 0 1 1 .87-.87c0 .488-.39.87-.87.87zm-.329 2.771a.694.694 0 0 1-.381-.626.714.714 0 0 1 .885-.687zm-1.206-1.42c-.39 0-.71-.32-.71-.71 0-.397.32-.71.71-.71.39 0 .71.313.71.71 0 .39-.32.71-.71.71zm0 2.856a.495.495 0 1 1 0-.993.495.495 0 1 1 0 .993zm-1.504-4.306a.767.767 0 0 1 0-1.535c.42 0 .771.344.771.764a.779.779 0 0 1-.771.77zm0 2.779a.534.534 0 0 1-.535-.527c0-.29.237-.534.535-.534a.53.53 0 0 1 .527.534.523.523 0 0 1-.527.527zm-1.558-4.268a.787.787 0 0 1-.794-.787c0-.442.36-.794.794-.794.436 0 .787.36.787.794a.785.785 0 0 1-.787.787zm.023 2.878a.616.616 0 0 1-.618-.618.616.616 0 1 1 1.229 0 .62.62 0 0 1-.61.618zm-1.534-4.36a.816.816 0 0 1-.817-.809c0-.45.366-.817.817-.817.45 0 .809.367.809.817a.81.81 0 0 1-.81.81zm-.046 2.757a.53.53 0 1 1 0-1.061.53.53 0 0 1 .527.534c0 .29-.237.527-.527.527zm-1.466-4.344a.758.758 0 0 1-.756-.756c0-.42.336-.756.756-.756s.756.343.756.756a.763.763 0 0 1-.756.756zm-.023 2.71a.495.495 0 1 1-.002-.995.495.495 0 0 1 .002.995zm-1.458-4.39a.675.675 0 0 1-.68-.672c0-.374.306-.672.68-.672a.673.673 0 0 1 0 1.344zm-.038 2.894a.429.429 0 0 1-.428-.436c0-.236.19-.435.428-.435a.435.435 0 1 1 0 .87zm-.901-6.528c0-.435.343-.78.778-.78a.784.784 0 1 1 0 1.566.784.784 0 0 1-.778-.786zm-.443 2.153a.604.604 0 0 1-.603-.603c0-.329.267-.596.603-.596.328 0 .603.267.603.596a.604.604 0 0 1-.603.603zm-.947-3.62c0-.42.336-.755.748-.755a.751.751 0 0 1 0 1.504.754.754 0 0 1-.748-.748zm2.245-2.412c.504 0 .916.412.916.916a.919.919 0 0 1-.916.917.919.919 0 0 1-.917-.917c0-.504.413-.916.917-.916zm1.489 1.497c.526 0 .962.427.962.962a.956.956 0 0 1-.962.954.955.955 0 0 1-.955-.954c0-.535.428-.962.955-.962zm.847 3.901a.85.85 0 0 1-.847.848.846.846 0 0 1-.848-.848.85.85 0 0 1 .848-.847.84.84 0 0 1 .847.847zm.74.618c.505 0 .917.413.917.917a.919.919 0 0 1-.916.916.919.919 0 0 1-.917-.916c0-.504.405-.917.917-.917zm3.016 2.963c.527 0 .962.435.962.962a.952.952 0 0 1-.962.954.955.955 0 0 1-.954-.954.956.956 0 0 1 .954-.962zm1.558 1.542a.929.929 0 0 1 0 1.855.929.929 0 0 1 0-1.855zm9.582-1.092h-.03l.977-3.848c-2.84-.313-5.414.97-6.261 3.024h-.008l-1.45 3.81a.983.983 0 1 1 .45-1.917 1.345 1.345 0 0 1-.137-.603c0-.038 0-.076.007-.114h-.122c-.175 0-.343-.031-.496-.1a1.092 1.092 0 0 1-1.061 1.344 1.085 1.085 0 0 1-1.085-1.092c0-.175.039-.336.115-.48-.153.083-.32.129-.512.129a1.127 1.127 0 0 1-1.046-1.55c-.16.084-.343.138-.534.138-.23 0-.45-.07-.626-.191.069.13.114.275.114.435 0 .52-.42.947-.939.947a.952.952 0 0 1-.946-.947c0-.52.427-.947.946-.947.168 0 .329.054.466.13a1.132 1.132 0 0 1 .015-1.214c-.152.076-.32.122-.504.122a1.13 1.13 0 0 1-1.13-1.122c0-.626.504-1.13 1.13-1.13.13 0 .245.03.36.069a1.275 1.275 0 0 1-.085-.45c0-.138.03-.276.077-.406-.115.031-.23.062-.352.062-.267 0-.519-.092-.71-.245a1.04 1.04 0 1 1-1.916.557 1.04 1.04 0 0 1 1.038-1.038c.222 0 .428.069.596.191a1.203 1.203 0 0 1-.199-.649c0-.145.03-.275.077-.405a1.156 1.156 0 0 1-.367.07 1.144 1.144 0 0 1-1.145-1.146c0-.634.511-1.145 1.145-1.145.13 0 .245.03.359.06a1.221 1.221 0 0 1-.1-.473c0-.145.031-.274.07-.397a1.202 1.202 0 0 1-.413.084c-.229 0-.443-.068-.626-.183.092.153.153.336.153.535a1.04 1.04 0 0 1-2.077 0 1.04 1.04 0 0 1 1.038-1.039c.191 0 .382.061.535.153a1.185 1.185 0 0 1-.19-.626c0-.138.03-.267.068-.39-5.558 3.52-9.093 8.88-9.093 14.873 0 7.2 5.115 13.484 12.689 16.79.634.282 1.443.61 2.489.954.091.03.19.053.29.092.023.007.038.015.061.023 1.084.343 2.207.626 3.367.847z"/><path id="whxeD" d="M103.108 90.205a.604.604 0 0 1-.603-.603c0-.328.267-.603.603-.603.328 0 .595.267.595.603a.598.598 0 0 1-.595.603zm.107 2.871a.443.443 0 1 1 .443-.443.438.438 0 0 1-.443.443zm-1.642-4.184a.811.811 0 0 1-.809-.817.81.81 0 0 1 1.619 0c0 .45-.36.817-.81.817zm.046 2.909a.681.681 0 0 1-.68-.68c0-.374.306-.68.68-.68.374 0 .68.299.68.68 0 .375-.306.68-.68.68zm.069 2.825a.494.494 0 0 1-.496-.489c0-.275.221-.496.496-.496a.494.494 0 0 1 0 .985zm-1.58-1.252a.733.733 0 1 1 .732-.733.728.728 0 0 1-.733.733zm.106 2.787a.531.531 0 0 1-.534-.535c0-.298.237-.534.534-.534.298 0 .535.244.535.534a.531.531 0 0 1-.535.535zm-1.61-1.192a.785.785 0 1 1 0-1.572c.427 0 .778.35.778.786a.774.774 0 0 1-.779.786zm.022 2.848a.604.604 0 0 1-.603-.603.61.61 0 0 1 .603-.603c.336 0 .603.275.603.603a.61.61 0 0 1-.603.603zm-1.52-1.298a.802.802 0 1 1 0-1.603.802.802 0 0 1 0 1.603zm0 2.772a.56.56 0 0 1-.557-.557c0-.314.252-.558.558-.558a.56.56 0 0 1 .557.558.556.556 0 0 1-.557.557zm-1.51-1.268a.79.79 0 0 1-.787-.786c0-.428.35-.779.786-.779.435 0 .787.351.787.78a.8.8 0 0 1-.787.785zm.022 2.68a.424.424 0 0 1-.428-.435c0-.237.191-.435.428-.435.244 0 .428.198.428.435a.424.424 0 0 1-.428.435zm-1.55-1.206a.733.733 0 1 1 0-1.466.733.733 0 0 1 0 1.466zm-1.527-1.344a.919.919 0 0 1-.916-.916c0-.504.412-.916.916-.916s.916.412.916.916a.919.919 0 0 1-.916.916zm0 2.764a.629.629 0 0 1-.626-.626c0-.344.275-.626.626-.626.344 0 .626.282.626.626a.629.629 0 0 1-.626.626zm-1.534-1.298a.85.85 0 0 1-.848-.847.844.844 0 1 1 .848.847zm.007 2.695a.531.531 0 0 1-.534-.534c0-.298.236-.542.534-.542.298 0 .535.236.535.542a.522.522 0 0 1-.535.534zm-1.504-1.267a.782.782 0 0 1-.779-.779c0-.427.352-.779.78-.779.427 0 .778.352.778.78a.787.787 0 0 1-.779.778zm4.55-6.253a.952.952 0 0 1 0 1.901.955.955 0 0 1-.954-.954c0-.52.428-.947.955-.947zm2.062-2.1c0-.527.427-.947.954-.947.527 0 .947.42.947.947 0 .52-.42.955-.947.955a.965.965 0 0 1-.954-.955zm2.458-2.496c.504 0 .917.412.917.916a.919.919 0 0 1-.917.916.919.919 0 0 1-.916-.916c0-.504.412-.916.916-.916zm1.596-1.504a.85.85 0 0 1 .848.847.846.846 0 0 1-.848.847.847.847 0 1 1 0-1.694zm4.642-.1a.513.513 0 0 1-.657-.496.5.5 0 0 1 .207-.412c-.16-.29-.329-.58-.504-.87a.77.77 0 0 1-1.497-.26c0-.428.344-.771.771-.771h.039a30.607 30.607 0 0 0-.604-.787c0 .03.008.061.008.092a.99.99 0 0 1-.992.992 1 1 0 0 1-.993-.992 1 1 0 0 1 .993-.993.86.86 0 0 1 .244.038c-.206-.229-.428-.458-.641-.68 0 .031.007.062.007.093 0 .64-.527 1.168-1.168 1.168-.1 0-.19-.023-.29-.038.046.114.069.244.069.374 0 .19-.046.374-.13.534a.99.99 0 0 1 .42-.092c.565 0 1.03.466 1.03 1.031s-.465 1.03-1.03 1.03-1.031-.465-1.031-1.03c0-.145.03-.282.084-.404a1.22 1.22 0 0 1-.55.137c-.122 0-.236-.023-.35-.053a1.266 1.266 0 0 1-.023.886.977.977 0 0 1 .366-.07 1.075 1.075 0 1 1 0 2.154c-.222 0-.428-.07-.596-.184a1.111 1.111 0 0 1-.94 1.71c-.182 0-.35-.053-.503-.122.092.16.145.352.145.558 0 .633-.519 1.153-1.16 1.153-.138 0-.268-.03-.39-.077a1.175 1.175 0 0 1-.23 1.23.997.997 0 0 1 .65-.252.973.973 0 1 1 0 1.947.978.978 0 0 1-.977-.97c0-.252.1-.474.252-.642a1.18 1.18 0 0 1-.802.313c-.16 0-.313-.03-.45-.083.053.13.091.274.091.427 0 .641-.519 1.16-1.16 1.16a1.16 1.16 0 0 1-.52-.13c.077.153.123.321.123.505 0 .618-.504 1.114-1.115 1.114-.221 0-.435-.068-.603-.183.107.168.176.367.176.58a1.066 1.066 0 1 1-2.13 0c0-.152.03-.29.091-.42a1.08 1.08 0 0 1-.74.115l-.008.886c.053-.016.114-.016.168-.016.519 0 .947.42.947.94a.94.94 0 0 1-1.153.916l-.03 1.565a.586.586 0 0 1 .259-.054c.366 0 .656.29.656.657 0 .367-.29.657-.656.657-.1 0-.191-.023-.283-.061l-.183 11.421c10.788-2.107 18.782-9.673 18.782-18.675 0-2.305-.527-4.52-1.489-6.566z"/><path id="whxeE" d="M133.686 88.526c-1.336-1.512-3.42-2.33-5.558-2.33-4.711-.007-7.544 3.177-7.551 8.04-.008 4.864 3.306 7.414 7.284 7.422 5.642.007 7.68-5.223 7.497-7.857.008-1.985-.282-3.664-1.672-5.275zm-15.736 5.42c.008-5.252 4.375-8.55 9.91-8.55 5.024.007 10.132 2.465 10.124 8.214-.007 5.345-4.237 8.842-10.2 8.834-5.91-.008-9.841-3.36-9.834-8.498z"/><path id="whxeF" d="M140.107 89.136c.428.03.863.084 1.328.092.428 0 .825-.061 1.329-.084v2.489c1.16-1.664 2.985-2.65 5.33-2.642 3.84.008 5.328 1.726 5.328 5.345l-.015 7.917c-.496-.03-.893-.084-1.32-.084-.466 0-.894.054-1.33.077l.008-7.284c.008-2.55-.557-4.543-3.664-4.55-3.474-.008-4.337 2.099-4.345 5.466l-.007 6.352c-.497-.03-.894-.084-1.321-.084-.466 0-.893.061-1.321.084z"/><path id="whxeG" d="M167.089 94.618c-.061-2.374-.855-4.756-4.138-4.772-3.108 0-4.474 2.459-4.673 4.765zm1.779 6.246c-1.619.962-3.68 1.618-5.703 1.61-4.566-.007-7.803-2.504-7.803-6.741.007-3.81 2.657-6.726 7.589-6.726 3.672.007 7.047 2.145 6.711 6.718a332.333 332.333 0 0 0-6.726-.091l-4.665-.008c-.306 3.062 1.71 5.696 5.718 5.703 2.253 0 4.009-1.175 4.902-1.885z"/><path id="whxeH" d="M176.526 86.525h3.863c3.085.008 5.001.664 4.993 2.978 0 1.305-.824 2.382-2.267 2.94-1.588.602-4.925.503-6.597.503zm-.008 7.322h3.337c3.558.008 6.077.81 6.077 3.68 0 2.214-2.061 3.764-4.947 3.764l-4.482-.007zm-2.611 8.33l5.894.007c2.031.023 4.474.023 6.207-.961 1.718-.97 2.657-2.383 2.657-4.108.008-2.817-3.084-3.695-5.375-3.825 2.581-.527 4.65-2.008 4.65-4.291.008-2.512-2.23-3.36-6.55-3.367l-7.452-.008z"/><path id="whxeI" d="M201.935 94.664c-.061-2.382-.855-4.764-4.13-4.772-3.116 0-4.467 2.459-4.673 4.757zm1.779 6.245c-1.626.962-3.68 1.611-5.696 1.611-4.573-.007-7.818-2.504-7.803-6.749 0-3.81 2.657-6.734 7.597-6.726 3.672 0 7.047 2.145 6.711 6.718a284.428 284.428 0 0 0-6.719-.091l-4.672-.008c-.298 3.07 1.718 5.696 5.726 5.696 2.245 0 4-1.168 4.894-1.878z"/><path id="whxeJ" d="M215.403 95.504l-1.16.19c-2.253.352-5.627.627-5.635 3.108 0 1.733 1.222 2.58 3.245 2.58.893.008 2.023-.518 2.65-1.03.228-.19.892-.657.892-.847zm2.642 4.52c0 1.076-.1 1.618 1.847 1.26v.603c-.236.084-.633.221-.992.275-1.718.236-3.146.023-3.413-1.588l-.298.244c-1.382 1.145-2.909 1.718-4.894 1.718-2.351 0-4.405-1.321-4.398-3.352 0-3.115 3.024-3.52 6.131-3.932 2.62-.359 3.512-.52 3.512-1.832 0-2.031-1.39-3.207-3.87-3.215-2.42 0-3.711 1.283-3.94 1.886h-.367v-1.535c1.588-.9 3.383-1.496 5.33-1.496 3.481.008 5.36 1.52 5.352 4.612z"/><path id="whxeK" d="M233.185 92.022h-.26c-.267-.305-.534-.664-.893-.908-.763-.71-2.153-1.1-3.275-1.1-3.84-.007-5.696 2.726-5.704 5.604-.007 3.505 2.413 6.002 6.017 6.01 1.916.007 3.176-.734 4.573-1.78l.199.084-.168 1.26c-1.49.9-3.245 1.367-5.07 1.359-5.52-.008-8.467-2.97-8.46-6.803.008-4.245 3.65-6.673 8.582-6.673 1.886 0 3.611.306 5.23 1.13z"/><path id="whxeL" d="M237.72 96.107c0 2.71 1.382 5.62 5.154 5.62 3.878.007 5.107-3.94 5.107-6.07.008-2.466-1.114-5.696-4.794-5.704-4.2-.007-5.467 3.253-5.467 6.154zm5.505-7.001c4.535.007 7.673 2.611 7.665 6.688 0 3.482-2.825 6.788-8.284 6.78-4.466-.008-8.108-2.718-7.803-6.88.008-3.946 3.65-6.596 8.422-6.588z"/><path id="whxeM" d="M252.692 89.281c.428.03.863.084 1.321.084.435 0 .825-.053 1.329-.084v2.49c1.16-1.673 2.985-2.65 5.336-2.65 3.84.008 5.33 1.733 5.322 5.345l-.008 7.917c-.496-.03-.893-.084-1.328-.084-.466 0-.893.053-1.321.084l.008-7.284c0-2.542-.558-4.543-3.665-4.55-3.482-.008-4.344 2.1-4.344 5.466l-.016 6.353c-.496-.03-.885-.092-1.32-.092-.466 0-.894.054-1.329.084z"/><path id="whxeN" d="M128.288 108.95h.802v5.596h-.802z"/><path id="whxeO" d="M135.312 108.95h1.092l2.466 4.504h.015v-4.505h.802v5.597h-1.023l-2.535-4.604h-.015v4.604h-.802z"/><path id="whxeP" d="M148.063 109.797c-.413-.16-.634-.23-1.054-.23-.45 0-.977.16-.977.749 0 1.076 2.405.824 2.405 2.672 0 1.191-.924 1.664-2.046 1.664-.39 0-.78-.114-1.146-.229l.077-.748c.275.115.756.275 1.16.275.458 0 1.1-.26 1.1-.916 0-1.252-2.405-.909-2.405-2.642 0-.992.786-1.52 1.794-1.52.366 0 .81.062 1.19.2z"/><path id="whxeQ" d="M158.293 112.232c0 1.573-.794 2.413-2.168 2.413-1.382 0-2.176-.84-2.176-2.413v-3.283h.802v3.176c0 1.077.336 1.81 1.374 1.81 1.03 0 1.367-.74 1.367-1.81v-3.176h.801z"/><path id="whxeR" d="M164.89 111.354h.68c.763 0 1.206-.336 1.206-.87 0-.504-.382-.825-1.122-.825h-.772v1.695zm-.802-2.405h1.367c1.107 0 2.176.176 2.176 1.512 0 .68-.504 1.16-1.153 1.275v.015c.252.1.367.214.542.565l1.054 2.23h-.916l-.855-1.94c-.245-.542-.512-.542-.94-.542h-.48v2.482h-.802v-5.597z"/><path id="whxeS" d="M175.61 109.705l-1.115 2.771h2.23zm-.397-.756h.84l2.366 5.597h-.87l-.573-1.413h-2.74l-.566 1.413h-.84z"/><path id="whxeT" d="M183.634 108.95h1.092l2.466 4.504h.015v-4.505h.802v5.597h-1.023l-2.535-4.604h-.015v4.604h-.802v-5.597z"/><path id="whxeU" d="M197.698 109.873a2.274 2.274 0 0 0-1.153-.313c-1.29 0-2.146.931-2.146 2.191 0 1.313.947 2.191 2.107 2.191.405 0 .94-.107 1.222-.275l.046.78c-.428.175-.947.198-1.275.198-1.771 0-2.947-1.138-2.947-2.917 0-1.725 1.252-2.87 2.954-2.87.436 0 .856.06 1.26.236z"/><path id="whxeV" d="M203.187 108.95h3.138v.702h-2.329v1.633h2.123v.703h-2.123v1.84h2.33v.702h-3.139z"/><path id="whxeW" d="M220.893 109.95c-.397-.26-.817-.382-1.543-.382-1.29 0-2.145.939-2.145 2.19 0 1.314.947 2.192 2.107 2.192.55 0 .695-.053.901-.1v-1.702h-1.176v-.656h1.978v2.908c-.306.107-.832.252-1.703.252-1.771 0-2.947-1.137-2.947-2.916 0-1.726 1.252-2.87 2.955-2.87.817 0 1.176.121 1.641.282z"/><path id="whxeX" d="M227.596 111.354h.68c.763 0 1.214-.336 1.214-.87 0-.504-.382-.825-1.123-.825h-.77zm-.802-2.405h1.367c1.107 0 2.176.176 2.176 1.512 0 .68-.504 1.16-1.153 1.275v.015c.244.1.367.214.542.565l1.061 2.23h-.916l-.855-1.94c-.252-.542-.511-.542-.939-.542h-.48v2.482h-.803v-5.597z"/><path id="whxeY" d="M238.155 113.935c1.29 0 1.84-1.077 1.84-2.192 0-1.137-.61-2.198-1.84-2.19-1.237-.008-1.84 1.053-1.84 2.19-.007 1.123.55 2.192 1.84 2.192zm0-5.078c1.703 0 2.695 1.237 2.695 2.894 0 1.703-.984 2.894-2.695 2.894-1.71 0-2.695-1.191-2.695-2.894 0-1.664.993-2.894 2.695-2.894z"/><path id="whxeZ" d="M250.348 112.232c0 1.573-.794 2.413-2.168 2.413-1.382 0-2.176-.84-2.176-2.413v-3.283h.802v3.176c0 1.077.336 1.81 1.374 1.81 1.03 0 1.367-.74 1.367-1.81v-3.176h.801z"/><path id="whxeaa" d="M256.746 111.606h.794c.497 0 1.123-.252 1.123-.985 0-.702-.74-.962-1.237-.962h-.68zm-.801-2.657h1.466c1.145 0 2.1.405 2.1 1.672 0 1.245-.97 1.687-1.978 1.687h-.787v2.238h-.801v-5.597z"/></defs><g><g transform="translate(-55 -74)"><g><g><use fill="#fff" xlink:href="#whxea"/></g><g><g><use fill="#fdb71c" xlink:href="#whxeb"/></g><g><use fill="#fdb71c" xlink:href="#whxec"/></g><g><use fill="#fdb71c" xlink:href="#whxed"/></g><g><use fill="#fdb71c" xlink:href="#whxee"/></g><g><use fill="#fdb71c" xlink:href="#whxef"/></g><g><use fill="#fdb71c" xlink:href="#whxeg"/></g><g><use fill="#fdb71c" xlink:href="#whxeh"/></g><g><use fill="#fdb71c" xlink:href="#whxei"/></g><g><use fill="#fdb71c" xlink:href="#whxej"/></g><g><use fill="#fdb71c" xlink:href="#whxek"/></g><g><use fill="#fdb71c" xlink:href="#whxel"/></g><g><use fill="#fdb71c" xlink:href="#whxem"/></g><g><use fill="#fdb71c" xlink:href="#whxen"/></g><g><use fill="#fdb71c" xlink:href="#whxeo"/></g><g><use fill="#fdb71c" xlink:href="#whxep"/></g><g><use fill="#fdb71c" xlink:href="#whxeq"/></g><g><use fill="#fdb71c" xlink:href="#whxer"/></g><g><use fill="#fdb71c" xlink:href="#whxes"/></g><g><use fill="#fdb71c" xlink:href="#whxet"/></g><g><use fill="#fdb71c" xlink:href="#whxeu"/></g><g><use fill="#fdb71c" xlink:href="#whxev"/></g><g><use fill="#fdb71c" xlink:href="#whxew"/></g><g><use fill="#fdb71c" xlink:href="#whxex"/></g><g><use fill="#fdb71c" xlink:href="#whxey"/></g><g><use fill="#fdb71c" xlink:href="#whxez"/></g><g><use fill="#fdb71c" xlink:href="#whxeA"/></g><g><use fill="#fdb71c" xlink:href="#whxeB"/></g><g><use fill="#fdb71c" xlink:href="#whxeC"/></g><g><use fill="#fdb71c" xlink:href="#whxeD"/></g></g><g><use fill="#fff" xlink:href="#whxeE"/></g><g><use fill="#fff" xlink:href="#whxeF"/></g><g><use fill="#fff" xlink:href="#whxeG"/></g><g><use fill="#fff" xlink:href="#whxeH"/></g><g><use fill="#fff" xlink:href="#whxeI"/></g><g><use fill="#fff" xlink:href="#whxeJ"/></g><g><use fill="#fff" xlink:href="#whxeK"/></g><g><use fill="#fff" xlink:href="#whxeL"/></g><g><use fill="#fff" xlink:href="#whxeM"/></g><g><g><use fill="#fff" xlink:href="#whxeN"/><use fill="#fff" fill-opacity="0" stroke="#fff" stroke-miterlimit="50" stroke-width=".19" xlink:href="#whxeN"/></g><g><use fill="#fff" xlink:href="#whxeO"/><use fill="#fff" fill-opacity="0" stroke="#fff" stroke-miterlimit="50" stroke-width=".19" xlink:href="#whxeO"/></g><g><use fill="#fff" xlink:href="#whxeP"/><use fill="#fff" fill-opacity="0" stroke="#fff" stroke-miterlimit="50" stroke-width=".19" xlink:href="#whxeP"/></g><g><use fill="#fff" xlink:href="#whxeQ"/><use fill="#fff" fill-opacity="0" stroke="#fff" stroke-miterlimit="50" stroke-width=".19" xlink:href="#whxeQ"/></g><g><use fill="#fff" xlink:href="#whxeR"/><use fill="#fff" fill-opacity="0" stroke="#fff" stroke-miterlimit="50" stroke-width=".19" xlink:href="#whxeR"/></g><g><use fill="#fff" xlink:href="#whxeS"/><use fill="#fff" fill-opacity="0" stroke="#fff" stroke-miterlimit="50" stroke-width=".19" xlink:href="#whxeS"/></g><g><use fill="#fff" xlink:href="#whxeT"/><use fill="#fff" fill-opacity="0" stroke="#fff" stroke-miterlimit="50" stroke-width=".19" xlink:href="#whxeT"/></g><g><use fill="#fff" xlink:href="#whxeU"/><use fill="#fff" fill-opacity="0" stroke="#fff" stroke-miterlimit="50" stroke-width=".19" xlink:href="#whxeU"/></g><g><use fill="#fff" xlink:href="#whxeV"/><use fill="#fff" fill-opacity="0" stroke="#fff" stroke-miterlimit="50" stroke-width=".19" xlink:href="#whxeV"/></g><g><use fill="#fff" xlink:href="#whxeW"/><use fill="#fff" fill-opacity="0" stroke="#fff" stroke-miterlimit="50" stroke-width=".19" xlink:href="#whxeW"/></g><g><use fill="#fff" xlink:href="#whxeX"/><use fill="#fff" fill-opacity="0" stroke="#fff" stroke-miterlimit="50" stroke-width=".19" xlink:href="#whxeX"/></g><g><use fill="#fff" xlink:href="#whxeY"/><use fill="#fff" fill-opacity="0" stroke="#fff" stroke-miterlimit="50" stroke-width=".19" xlink:href="#whxeY"/></g><g><use fill="#fff" xlink:href="#whxeZ"/><use fill="#fff" fill-opacity="0" stroke="#fff" stroke-miterlimit="50" stroke-width=".19" xlink:href="#whxeZ"/></g><g><use fill="#fff" xlink:href="#whxeaa"/><use fill="#fff" fill-opacity="0" stroke="#fff" stroke-miterlimit="50" stroke-width=".19" xlink:href="#whxeaa"/></g></g></g></g></g></svg>